<svg width="69" height="80" viewBox="0 0 69 80" fill="none" xmlns="http://www.w3.org/2000/svg">
<path d="M38.471 78.3622C34.6113 80.5937 34.1206 80.578 30.0407 78.1112C28.3106 77.066 25.6211 75.4717 24.064 74.5647C10.8618 66.8973 1.58854 61.3327 0.865046 60.6485L0 59.8325V20.0268L0.902792 19.1951C1.3998 18.7369 4.46049 16.8098 7.70363 14.911C10.9468 13.0123 15.1776 10.5266 17.1027 9.38728C31.7991 0.699888 32.8623 0.0376651 33.9476 0.00314157C34.0356 3.06498e-06 34.1268 0 34.2244 0C34.281 0.00313851 34.3439 0.00314157 34.41 0.00314157C35.5896 0.00314157 36.3728 0.323265 38.9145 1.83289C42.727 4.10203 52.0663 9.59756 61.1194 14.9048C66.1461 17.8518 68.0996 19.1637 68.4393 19.8197C68.8356 20.5823 68.8891 23.5419 68.8168 40.3047L68.7318 59.8984L67.9612 60.7176C67.5396 61.1664 66.618 61.86 65.9165 62.2586C65.215 62.6603 63.0508 63.9251 61.1037 65.0769C52.3809 70.2304 42.1073 76.2626 38.471 78.3622ZM33.4883 72.6627C34.5326 73.1147 35.1681 72.9515 37.4329 71.6521C39.4209 70.5097 50.6697 63.8875 53.3183 62.2962C54.5294 61.5712 56.9043 60.1652 58.5935 59.1734C60.2827 58.1816 61.8775 57.0706 62.1323 56.7066C62.5287 56.1416 62.5979 53.6716 62.5979 40.1195C62.5979 28.5322 62.4972 23.9782 62.2267 23.385C61.9876 22.8609 60.7734 21.9382 58.8452 20.8146C57.1906 19.8511 51.3397 16.3924 45.8443 13.1347C40.352 9.87374 35.4512 7.12442 34.9573 7.02712C33.8752 6.81056 33.589 6.94866 26.2659 11.2955C23.1518 13.1441 17.4488 16.5211 13.5891 18.8028C8.45229 21.844 6.49571 23.1622 6.27552 23.7397C6.10251 24.1979 5.97668 30.9614 5.97668 39.994V55.4606L6.68445 56.4586C7.18775 57.1648 11.0348 59.5971 19.9747 64.8573C26.8951 68.931 32.9756 72.443 33.4883 72.6627ZM44.6678 43.4715L24.064 43.5719L23.9067 51.0792L23.7494 58.5834L20.9184 56.8886C19.3613 55.9596 17.8388 54.9709 17.5368 54.6979C17.0273 54.2397 16.9864 53.1412 16.9926 40.2074C16.9926 32.5087 17.0996 26.0496 17.2286 25.855C17.3544 25.6604 18.8737 24.6467 20.6038 23.6016L23.7494 21.7028L23.9193 36.096H44.6678V29.0343C44.6678 22.5157 44.7087 21.9727 45.2183 21.9821C45.5203 21.9884 47.112 22.8107 48.7571 23.8087L51.7455 25.6259L51.8273 39.9438L51.9091 54.2617L50.8836 55.0369C49.2101 56.3048 45.0579 58.6618 44.8534 58.461C44.7528 58.3574 44.6678 54.9427 44.6678 50.8721V43.4715Z" fill="#2562EB"/>
</svg>
